<?xml version="1.0" encoding="UTF-8"?>
<mxfile host="app.diagrams.net" modified="2025-08-01T21:35:00+02:00" agent="xAI Grok 3" etag="xyz789" version="20.9.0">
  <diagram id="1" name="MIGI_OS_Flowchart">
    <mxGraphModel dx="1153" dy="747" grid="1" gridSize="10" guides="1" tooltips="1" connect="1" arrows="1" fold="1" page="1" pageScale="1" pageWidth="850" pageHeight="1100" background="#ffffff" math="0" shadow="0">
      <root>
        <mxCell id="0"/>
        <mxCell id="1" parent="0"/>

        <!-- Start -->
        <mxCell id="2" value="Start" style="ellipse;whiteSpace=wrap;html=1;fillColor=#32CD32;fontColor=#FFFFFF;fontSize=12;" vertex="1">
          <mxGeometry x="300" y="50" width="100" height="50" as="geometry"/>
        </mxCell>

        <!-- Input Data -->
        <mxCell id="3" value="Input Data&lt;br&gt;(W, M, D, C, A, E, T)" style="rounded=1;whiteSpace=wrap;html=1;fillColor=#98FB98;fontColor=#000000;fontSize=10;" vertex="1">
          <mxGeometry x="250" y="150" width="200" height="80" as="geometry"/>
        </mxCell>

        <!-- Assess Phase -->
        <mxCell id="4" value="Assess Development Phase&lt;br&gt;(Destrukcja, Punkt 0, RozwÃ³j)" style="rhombus;whiteSpace=wrap;html=1;fillColor=#FFD700;fontColor=#000000;fontSize=10;" vertex="1">
          <mxGeometry x="300" y="250" width="200" height="100" as="geometry"/>
        </mxCell>

        <!-- Calculate P(S) -->
        <mxCell id="5" value="Calculate P(S)&lt;br&gt;Using AI_Psyche_GOK:AI" style="rounded=1;whiteSpace=wrap;html=1;fillColor=#1E90FF;fontColor=#FFFFFF;fontSize=10;" vertex="1">
          <mxGeometry x="200" y="370" width="200" height="80" as="geometry"/>
        </mxCell>

        <!-- Evolve Matrix <369963> -->
        <mxCell id="6" value="Evolve Matrix &lt;369963&gt;&lt;br&gt;(3 Iterations)" style="rounded=1;whiteSpace=wrap;html=1;fillColor=#1E90FF;fontColor=#FFFFFF;fontSize=10;" vertex="1">
          <mxGeometry x="450" y="370" width="200" height="80" as="geometry"/>
        </mxCell>

        <!-- Generate Recommendations -->
        <mxCell id="7" value="Generate Recommendations" style="rounded=1;whiteSpace=wrap;html=1;fillColor=#98FB98;fontColor=#000000;fontSize=10;" vertex="1">
          <mxGeometry x="325" y="470" width="200" height="80" as="geometry"/>
        </mxCell>

        <!-- Output to UI -->
        <mxCell id="8" value="Output to UI/Agent/Simulation" style="rounded=1;whiteSpace=wrap;html=1;fillColor=#98FB98;fontColor=#000000;fontSize=10;" vertex="1">
          <mxGeometry x="300" y="570" width="200" height="80" as="geometry"/>
        </mxCell>

        <!-- End -->
        <mxCell id="9" value="End" style="ellipse;whiteSpace=wrap;html=1;fillColor=#32CD32;fontColor=#FFFFFF;fontSize=12;" vertex="1">
          <mxGeometry x="300" y="670" width="100" height="50" as="geometry"/>
        </mxCell>

        <!-- Connections -->
        <mxCell id="10" style="edgeStyle=orthogonalEdgeStyle;endArrow=classic;endFill=1;endSize=6;" edge="1" parent="1" source="2" target="3">
          <mxGeometry relative="1" as="geometry"/>
        </mxCell>
        <mxCell id="11" style="edgeStyle=orthogonalEdgeStyle;endArrow=classic;endFill=1;endSize=6;" edge="1" parent="1" source="3" target="4">
          <mxGeometry relative="1" as="geometry"/>
        </mxCell>
        <mxCell id="12" style="edgeStyle=orthogonalEdgeStyle;endArrow=classic;endFill=1;endSize=6;label='Yes';" edge="1" parent="1" source="4" target="5">
          <mxGeometry relative="1" as="geometry"/>
        </mxCell>
        <mxCell id="13" style="edgeStyle=orthogonalEdgeStyle;endArrow=classic;endFill=1;endSize=6;label='No';" edge="1" parent="1" source="4" target="3">
          <mxGeometry relative="1" as="geometry"/>
        </mxCell>
        <mxCell id="14" style="edgeStyle=orthogonalEdgeStyle;endArrow=classic;endFill=1;endSize=6;" edge="1" parent="1" source="5" target="6">
          <mxGeometry relative="1" as="geometry"/>
        </mxCell>
        <mxCell id="15" style="edgeStyle=orthogonalEdgeStyle;endArrow=classic;endFill=1;endSize=6;" edge="1" parent="1" source="6" target="7">
          <mxGeometry relative="1" as="geometry"/>
        </mxCell>
        <mxCell id="16" style="edgeStyle=orthogonalEdgeStyle;endArrow=classic;endFill=1;endSize=6;" edge="1" parent="1" source="7" target="8">
          <mxGeometry relative="1" as="geometry"/>
        </mxCell>
        <mxCell id="17" style="edgeStyle=orthogonalEdgeStyle;endArrow=classic;endFill=1;endSize=6;" edge="1" parent="1" source="8" target="9">
          <mxGeometry relative="1" as="geometry"/>
        </mxCell>

      </root>
    </mxGraphModel>
  </diagram>
</mxfile>